G04 MADE WITH FRITZING*
G04 WWW.FRITZING.ORG*
G04 DOUBLE SIDED*
G04 HOLES PLATED*
G04 CONTOUR ON CENTER OF CONTOUR VECTOR*
%ASAXBY*%
%FSLAX23Y23*%
%MOIN*%
%OFA0B0*%
%SFA1.0B1.0*%
%ADD10C,0.039370*%
%ADD11C,0.075000*%
%ADD12C,0.074000*%
%ADD13C,0.035433*%
%ADD14C,0.078000*%
%ADD15R,0.075000X0.075000*%
%ADD16C,0.024000*%
%LNCOPPER0*%
G90*
G70*
G54D10*
X2641Y1404D03*
X3413Y1604D03*
X3410Y1693D03*
X2510Y1382D03*
X2591Y1538D03*
X1668Y1921D03*
G54D11*
X4434Y1072D03*
X4434Y772D03*
X4334Y1072D03*
X4334Y772D03*
X4234Y1072D03*
X4234Y772D03*
X4134Y1072D03*
X4134Y772D03*
X4034Y1072D03*
X4034Y772D03*
X3934Y1072D03*
X3934Y772D03*
X3834Y1072D03*
X3834Y772D03*
X3734Y1072D03*
X3734Y772D03*
X3634Y1072D03*
X3634Y772D03*
X3534Y1072D03*
X3534Y772D03*
X3434Y1072D03*
X3434Y772D03*
X3334Y1072D03*
X3334Y772D03*
X3234Y1072D03*
X3234Y772D03*
X3134Y1072D03*
X3134Y772D03*
G54D12*
X3596Y1246D03*
X3696Y1246D03*
X3496Y1246D03*
G54D10*
X1080Y1924D03*
X2205Y2065D03*
X3484Y2069D03*
X2956Y1905D03*
X4205Y1914D03*
X2358Y1971D03*
X4106Y2597D03*
X2825Y2597D03*
X1545Y2596D03*
G54D13*
X2496Y187D03*
X2670Y187D03*
G54D10*
X4113Y2000D03*
X2851Y2025D03*
X1544Y1999D03*
X4415Y2376D03*
X3137Y2376D03*
X1845Y2375D03*
X4413Y2067D03*
X3133Y2068D03*
X1847Y2075D03*
X4285Y1839D03*
X3007Y1839D03*
X1716Y1838D03*
X3957Y2397D03*
X2679Y2396D03*
X1388Y2395D03*
X3715Y2143D03*
X2437Y2142D03*
X1145Y2141D03*
X3717Y2206D03*
X2438Y2205D03*
X1147Y2204D03*
X3459Y2350D03*
X2181Y2350D03*
X890Y2349D03*
X3954Y2495D03*
X2675Y2494D03*
X1384Y2493D03*
X3667Y2663D03*
X2388Y2663D03*
X1097Y2662D03*
X3713Y2497D03*
X2435Y2496D03*
X1144Y2495D03*
X3878Y2580D03*
X2600Y2579D03*
X1308Y2578D03*
X4168Y2197D03*
X2890Y2196D03*
X1599Y2195D03*
X4129Y2447D03*
X2851Y2446D03*
X1560Y2445D03*
X3746Y1984D03*
X2470Y1988D03*
X1177Y1982D03*
G54D14*
X4186Y2794D03*
X4086Y2794D03*
X3986Y2794D03*
X3886Y2794D03*
X3786Y2794D03*
X3686Y2794D03*
X3586Y2794D03*
X3486Y2794D03*
X2908Y2793D03*
X2808Y2793D03*
X2708Y2793D03*
X2608Y2793D03*
X2508Y2793D03*
X2408Y2793D03*
X2308Y2793D03*
X2208Y2793D03*
X1628Y2792D03*
X1528Y2792D03*
X1428Y2792D03*
X1328Y2792D03*
X1228Y2792D03*
X1128Y2792D03*
X1028Y2792D03*
X928Y2792D03*
X4186Y1835D03*
X4086Y1835D03*
X3986Y1835D03*
X3886Y1835D03*
X3786Y1835D03*
X3686Y1835D03*
X3586Y1835D03*
X3486Y1835D03*
X2908Y1834D03*
X2808Y1834D03*
X2708Y1834D03*
X2608Y1834D03*
X2508Y1834D03*
X2408Y1834D03*
X2308Y1834D03*
X2208Y1834D03*
X1628Y1833D03*
X1528Y1833D03*
X1428Y1833D03*
X1328Y1833D03*
X1228Y1833D03*
X1128Y1833D03*
X1028Y1833D03*
X928Y1833D03*
G54D10*
X3832Y315D03*
G54D15*
X4434Y1072D03*
G54D16*
X3743Y1045D02*
X3825Y799D01*
D02*
X2659Y1409D02*
X3395Y1599D01*
D02*
X2609Y1541D02*
X3392Y1690D01*
D02*
X2582Y1521D02*
X2519Y1399D01*
D02*
X3388Y1290D02*
X3428Y1100D01*
D02*
X3496Y1518D02*
X3388Y1290D01*
D02*
X4430Y1518D02*
X3496Y1518D01*
D02*
X4535Y1646D02*
X4430Y1518D01*
D02*
X4524Y2460D02*
X4535Y1646D01*
D02*
X4474Y2532D02*
X4524Y2460D01*
D02*
X4349Y2535D02*
X4474Y2532D01*
D02*
X4252Y2601D02*
X4349Y2535D01*
D02*
X3716Y1094D02*
X3613Y1225D01*
D02*
X2638Y1302D02*
X2034Y1302D01*
D02*
X2034Y1302D02*
X1755Y1915D01*
D02*
X2999Y1074D02*
X2638Y1302D01*
D02*
X1755Y1915D02*
X1687Y1920D01*
D02*
X3105Y1072D02*
X2999Y1074D01*
D02*
X2165Y1910D02*
X2046Y2013D01*
D02*
X2046Y2013D02*
X1663Y2011D01*
D02*
X1663Y2011D02*
X1608Y1910D01*
D02*
X1608Y1910D02*
X1183Y1910D01*
D02*
X2847Y1912D02*
X2165Y1910D01*
D02*
X1183Y1910D02*
X1098Y1921D01*
D02*
X2937Y1906D02*
X2847Y1912D01*
D02*
X3756Y1912D02*
X3126Y1946D01*
D02*
X3126Y1946D02*
X2409Y1945D01*
D02*
X2409Y1945D02*
X2374Y1963D01*
D02*
X4186Y1913D02*
X3756Y1912D01*
D02*
X2935Y2600D02*
X3020Y2724D01*
D02*
X3020Y2724D02*
X3017Y2789D01*
D02*
X3017Y2789D02*
X2971Y2900D01*
D02*
X2971Y2900D02*
X2152Y2899D01*
D02*
X2152Y2899D02*
X2000Y2597D01*
D02*
X2000Y2597D02*
X1564Y2596D01*
D02*
X2844Y2598D02*
X2935Y2600D01*
D02*
X4252Y2601D02*
X4125Y2598D01*
D02*
X4296Y2661D02*
X4252Y2601D01*
D02*
X4296Y2790D02*
X4296Y2661D01*
D02*
X4253Y2899D02*
X4296Y2790D01*
D02*
X2971Y2900D02*
X4253Y2899D01*
D02*
X4307Y2237D02*
X4403Y2361D01*
D02*
X3029Y2237D02*
X3125Y2361D01*
D02*
X1738Y2236D02*
X1834Y2360D01*
D02*
X4187Y2202D02*
X4307Y2237D01*
D02*
X2909Y2201D02*
X3029Y2237D01*
D02*
X1617Y2200D02*
X1738Y2236D01*
D02*
X4239Y1767D02*
X3824Y1763D01*
D02*
X2961Y1766D02*
X2546Y1763D01*
D02*
X1681Y1765D02*
X1266Y1762D01*
D02*
X4275Y1823D02*
X4239Y1767D01*
D02*
X2997Y1823D02*
X2961Y1766D01*
D02*
X1707Y1821D02*
X1681Y1765D01*
D02*
X3824Y1763D02*
X3800Y1808D01*
D02*
X2546Y1763D02*
X2522Y1808D01*
D02*
X1266Y1762D02*
X1242Y1807D01*
D02*
X3829Y1956D02*
X3764Y1978D01*
D02*
X2549Y1976D02*
X2489Y1985D01*
D02*
X1260Y1954D02*
X1195Y1976D01*
D02*
X4246Y1958D02*
X3829Y1956D01*
D02*
X2982Y1978D02*
X2549Y1976D01*
D02*
X1582Y1953D02*
X1260Y1954D01*
D02*
X4397Y2056D02*
X4246Y1958D01*
D02*
X3117Y2058D02*
X2982Y1978D01*
D02*
X1632Y2049D02*
X1582Y1953D01*
D02*
X1828Y2072D02*
X1632Y2049D01*
D02*
X3581Y2391D02*
X3483Y2230D01*
D02*
X2303Y2390D02*
X2205Y2229D01*
D02*
X1023Y2389D02*
X925Y2228D01*
D02*
X3483Y2230D02*
X3484Y2088D01*
D02*
X2205Y2229D02*
X2205Y2084D01*
D02*
X925Y2228D02*
X928Y1863D01*
D02*
X3938Y2396D02*
X3581Y2391D01*
D02*
X2660Y2396D02*
X2303Y2390D01*
D02*
X1369Y2395D02*
X1023Y2389D01*
D02*
X2809Y2012D02*
X2833Y2019D01*
D02*
X3937Y2000D02*
X4094Y2000D01*
D02*
X2639Y2010D02*
X2809Y2012D01*
D02*
X1368Y1999D02*
X1525Y1999D01*
D02*
X3731Y2133D02*
X3937Y2000D01*
D02*
X2452Y2132D02*
X2639Y2010D01*
D02*
X1161Y2131D02*
X1368Y1999D01*
D02*
X3829Y2317D02*
X4059Y2317D01*
D02*
X2551Y2316D02*
X2781Y2316D01*
D02*
X1271Y2315D02*
X1501Y2315D01*
D02*
X3730Y2219D02*
X3829Y2317D01*
D02*
X2452Y2219D02*
X2551Y2316D01*
D02*
X1161Y2217D02*
X1271Y2315D01*
D02*
X3920Y2728D02*
X3900Y2767D01*
D02*
X2642Y2728D02*
X2622Y2767D01*
D02*
X1362Y2726D02*
X1342Y2766D01*
D02*
X4057Y2643D02*
X3920Y2728D01*
D02*
X2779Y2642D02*
X2642Y2728D01*
D02*
X1499Y2641D02*
X1362Y2726D01*
D02*
X4059Y2317D02*
X4057Y2643D01*
D02*
X2781Y2316D02*
X2779Y2642D01*
D02*
X1501Y2315D02*
X1499Y2641D01*
D02*
X3458Y2369D02*
X3450Y2504D01*
D02*
X2180Y2369D02*
X2172Y2503D01*
D02*
X890Y2368D02*
X892Y2502D01*
D02*
X3572Y2674D02*
X3666Y2772D01*
D02*
X2294Y2674D02*
X2388Y2772D01*
D02*
X1014Y2673D02*
X1108Y2771D01*
D02*
X3450Y2504D02*
X3572Y2674D01*
D02*
X2172Y2503D02*
X2294Y2674D01*
D02*
X892Y2502D02*
X1014Y2673D01*
D02*
X3928Y2663D02*
X3685Y2663D01*
D02*
X2650Y2663D02*
X2407Y2663D01*
D02*
X1358Y2662D02*
X1116Y2662D01*
D02*
X3951Y2514D02*
X3928Y2663D01*
D02*
X2673Y2513D02*
X2650Y2663D01*
D02*
X1381Y2512D02*
X1358Y2662D01*
D02*
X3730Y2505D02*
X3861Y2571D01*
D02*
X2452Y2505D02*
X2583Y2571D01*
D02*
X1160Y2504D02*
X1291Y2570D01*
D02*
X4165Y2215D02*
X4132Y2428D01*
D02*
X2887Y2215D02*
X2854Y2427D01*
D02*
X1596Y2214D02*
X1563Y2426D01*
D02*
X3832Y334D02*
X3834Y743D01*
G04 End of Copper0*
M02*