G04 MADE WITH FRITZING*
G04 WWW.FRITZING.ORG*
G04 DOUBLE SIDED*
G04 HOLES PLATED*
G04 CONTOUR ON CENTER OF CONTOUR VECTOR*
%ASAXBY*%
%FSLAX23Y23*%
%MOIN*%
%OFA0B0*%
%SFA1.0B1.0*%
%ADD10C,0.035433*%
%ADD11R,0.035433X0.031496*%
%ADD12R,0.059055X0.055118*%
%ADD13R,0.055118X0.059055*%
%ADD14R,0.062992X0.090551*%
%ADD15R,0.019685X0.098425*%
%ADD16R,0.078740X0.098425*%
%ADD17R,0.047244X0.078740*%
%ADD18R,0.078740X0.047244*%
%ADD19R,0.080000X0.023000*%
%LNPASTEMASK1*%
G90*
G70*
G54D10*
X2496Y187D03*
X2670Y187D03*
G54D11*
X4290Y1350D03*
X4290Y1275D03*
X4369Y1313D03*
G54D12*
X4309Y614D03*
X4309Y695D03*
X4216Y617D03*
X4216Y698D03*
X4121Y617D03*
X4121Y698D03*
G54D13*
X3800Y658D03*
X3881Y658D03*
X4035Y1350D03*
X4116Y1350D03*
X3459Y658D03*
X3539Y658D03*
X2953Y660D03*
X3033Y660D03*
G54D12*
X4307Y419D03*
X4307Y500D03*
X4216Y417D03*
X4216Y498D03*
X4122Y416D03*
X4122Y496D03*
G54D13*
X3811Y1349D03*
X3892Y1349D03*
G54D14*
X3344Y662D03*
X3344Y414D03*
X3155Y662D03*
X3155Y414D03*
X3674Y662D03*
X3674Y414D03*
G54D15*
X2614Y286D03*
G54D16*
X2760Y69D03*
X2406Y69D03*
X2760Y286D03*
X2406Y286D03*
G54D17*
X4415Y2267D03*
X4415Y2377D03*
X3135Y2266D03*
X3135Y2377D03*
G54D18*
X3923Y1474D03*
X3813Y1474D03*
G54D17*
X1845Y2268D03*
X1845Y2379D03*
G54D12*
X3538Y2484D03*
X3538Y2404D03*
X2260Y2484D03*
X2260Y2403D03*
X969Y2483D03*
X969Y2402D03*
G54D19*
X4035Y2148D03*
X4035Y2198D03*
X4035Y2248D03*
X4035Y2298D03*
X4035Y2348D03*
X4035Y2398D03*
X4035Y2448D03*
X4035Y2498D03*
X4035Y2548D03*
X4035Y2598D03*
X4035Y2648D03*
X4035Y2698D03*
X3635Y2148D03*
X3635Y2198D03*
X3635Y2248D03*
X3635Y2298D03*
X3635Y2348D03*
X3635Y2398D03*
X3635Y2448D03*
X3635Y2498D03*
X3635Y2548D03*
X3635Y2598D03*
X3635Y2648D03*
X3635Y2698D03*
X2757Y2147D03*
X2757Y2197D03*
X2757Y2247D03*
X2757Y2297D03*
X2757Y2347D03*
X2757Y2397D03*
X2757Y2447D03*
X2757Y2497D03*
X2757Y2547D03*
X2757Y2597D03*
X2757Y2647D03*
X2757Y2697D03*
X2357Y2147D03*
X2357Y2197D03*
X2357Y2247D03*
X2357Y2297D03*
X2357Y2347D03*
X2357Y2397D03*
X2357Y2447D03*
X2357Y2497D03*
X2357Y2547D03*
X2357Y2597D03*
X2357Y2647D03*
X2357Y2697D03*
X1466Y2146D03*
X1466Y2196D03*
X1466Y2246D03*
X1466Y2296D03*
X1466Y2346D03*
X1466Y2396D03*
X1466Y2446D03*
X1466Y2496D03*
X1466Y2546D03*
X1466Y2596D03*
X1466Y2646D03*
X1466Y2696D03*
X1066Y2146D03*
X1066Y2196D03*
X1066Y2246D03*
X1066Y2296D03*
X1066Y2346D03*
X1066Y2396D03*
X1066Y2446D03*
X1066Y2496D03*
X1066Y2546D03*
X1066Y2596D03*
X1066Y2646D03*
X1066Y2696D03*
G04 End of PasteMask1*
M02*