G04 MADE WITH FRITZING*
G04 WWW.FRITZING.ORG*
G04 DOUBLE SIDED*
G04 HOLES PLATED*
G04 CONTOUR ON CENTER OF CONTOUR VECTOR*
%ASAXBY*%
%FSLAX23Y23*%
%MOIN*%
%OFA0B0*%
%SFA1.0B1.0*%
%ADD10C,0.049370*%
%ADD11C,0.085000*%
%ADD12C,0.084000*%
%ADD13C,0.206850*%
%ADD14C,0.045433*%
%ADD15C,0.088000*%
%ADD16R,0.065118X0.069055*%
%ADD17R,0.085000X0.085000*%
%ADD18R,0.072992X0.100551*%
%ADD19R,0.029685X0.108425*%
%ADD20R,0.088740X0.108425*%
%ADD21R,0.057244X0.088740*%
%ADD22R,0.088740X0.057244*%
%ADD23R,0.069055X0.065118*%
%ADD24R,0.090000X0.033000*%
%LNMASK1*%
G90*
G70*
G54D11*
X4434Y1072D03*
X4434Y772D03*
X4334Y1072D03*
X4334Y772D03*
X4234Y1072D03*
X4234Y772D03*
X4134Y1072D03*
X4134Y772D03*
X4034Y1072D03*
X4034Y772D03*
X3934Y1072D03*
X3934Y772D03*
X3834Y1072D03*
X3834Y772D03*
X3734Y1072D03*
X3734Y772D03*
X3634Y1072D03*
X3634Y772D03*
X3534Y1072D03*
X3534Y772D03*
X3434Y1072D03*
X3434Y772D03*
X3334Y1072D03*
X3334Y772D03*
X3234Y1072D03*
X3234Y772D03*
X3134Y1072D03*
X3134Y772D03*
G54D12*
X3596Y1246D03*
X3696Y1246D03*
X3496Y1246D03*
X3596Y1246D03*
X3696Y1246D03*
X3496Y1246D03*
G54D13*
X171Y184D03*
X4938Y184D03*
X4938Y2969D03*
X171Y2969D03*
G54D14*
X2496Y187D03*
X2670Y187D03*
G54D15*
X4186Y2794D03*
X4086Y2794D03*
X3986Y2794D03*
X3886Y2794D03*
X3786Y2794D03*
X3686Y2794D03*
X3586Y2794D03*
X3486Y2794D03*
X2908Y2793D03*
X2808Y2793D03*
X2708Y2793D03*
X2608Y2793D03*
X2508Y2793D03*
X2408Y2793D03*
X2308Y2793D03*
X2208Y2793D03*
X1628Y2792D03*
X1528Y2792D03*
X1428Y2792D03*
X1328Y2792D03*
X1228Y2792D03*
X1128Y2792D03*
X1028Y2792D03*
X928Y2792D03*
X4186Y1835D03*
X4086Y1835D03*
X3986Y1835D03*
X3886Y1835D03*
X3786Y1835D03*
X3686Y1835D03*
X3586Y1835D03*
X3486Y1835D03*
X2908Y1834D03*
X2808Y1834D03*
X2708Y1834D03*
X2608Y1834D03*
X2508Y1834D03*
X2408Y1834D03*
X2308Y1834D03*
X2208Y1834D03*
X1628Y1833D03*
X1528Y1833D03*
X1428Y1833D03*
X1328Y1833D03*
X1228Y1833D03*
X1128Y1833D03*
X1028Y1833D03*
X928Y1833D03*
G54D16*
X3811Y1249D03*
X3892Y1249D03*
G54D17*
X4434Y1072D03*
G54D18*
X3344Y562D03*
X3344Y314D03*
X3674Y562D03*
X3674Y314D03*
X3155Y562D03*
X3155Y314D03*
G54D19*
X2583Y286D03*
X2551Y286D03*
X2646Y286D03*
X2614Y286D03*
G54D20*
X2760Y69D03*
X2406Y69D03*
X2760Y286D03*
X2406Y286D03*
G54D19*
X2520Y286D03*
G54D21*
X4415Y2166D03*
X4415Y2277D03*
X3135Y2166D03*
X3135Y2276D03*
X1845Y2168D03*
X1845Y2278D03*
G54D22*
X3923Y1373D03*
X3813Y1373D03*
G54D23*
X3538Y2384D03*
X3538Y2303D03*
X2260Y2383D03*
X2260Y2303D03*
X969Y2382D03*
X969Y2302D03*
G54D24*
X4035Y2047D03*
X4035Y2097D03*
X4035Y2147D03*
X4035Y2197D03*
X4035Y2247D03*
X4035Y2297D03*
X4035Y2347D03*
X4035Y2397D03*
X4035Y2447D03*
X4035Y2497D03*
X4035Y2547D03*
X4035Y2597D03*
X3635Y2047D03*
X3635Y2097D03*
X3635Y2147D03*
X3635Y2197D03*
X3635Y2247D03*
X3635Y2297D03*
X3635Y2347D03*
X3635Y2397D03*
X3635Y2447D03*
X3635Y2497D03*
X3635Y2547D03*
X3635Y2597D03*
X2757Y2047D03*
X2757Y2097D03*
X2757Y2147D03*
X2757Y2197D03*
X2757Y2247D03*
X2757Y2297D03*
X2757Y2347D03*
X2757Y2397D03*
X2757Y2447D03*
X2757Y2497D03*
X2757Y2547D03*
X2757Y2597D03*
X2357Y2047D03*
X2357Y2097D03*
X2357Y2147D03*
X2357Y2197D03*
X2357Y2247D03*
X2357Y2297D03*
X2357Y2347D03*
X2357Y2397D03*
X2357Y2447D03*
X2357Y2497D03*
X2357Y2547D03*
X2357Y2597D03*
X1466Y2046D03*
X1466Y2096D03*
X1466Y2146D03*
X1466Y2196D03*
X1466Y2246D03*
X1466Y2296D03*
X1466Y2346D03*
X1466Y2396D03*
X1466Y2446D03*
X1466Y2496D03*
X1466Y2546D03*
X1466Y2596D03*
X1066Y2046D03*
X1066Y2096D03*
X1066Y2146D03*
X1066Y2196D03*
X1066Y2246D03*
X1066Y2296D03*
X1066Y2346D03*
X1066Y2396D03*
X1066Y2446D03*
X1066Y2496D03*
X1066Y2546D03*
X1066Y2596D03*
G54D16*
X2953Y560D03*
X3033Y560D03*
G54D23*
X4216Y517D03*
X4216Y597D03*
X4121Y517D03*
X4121Y597D03*
G54D16*
X3800Y557D03*
X3881Y557D03*
X3459Y557D03*
X3539Y557D03*
G54D23*
X4122Y315D03*
X4122Y396D03*
X4216Y317D03*
X4216Y397D03*
G04 End of Mask1*
M02*