; NON-PLATED HOLES START AT T1
; THROUGH (PLATED) HOLES START AT T100
M48
INCH
T1C0.196850
T100C0.038000
T101C0.015748
T102C0.035000
T103C0.031496
%
T1
X049379Y001838
X001713Y001838
X049379Y029690
X001713Y029690
T100
X009283Y027924
X011283Y018333
X040864Y018349
X010283Y018333
X012283Y018333
X014283Y018333
X016283Y018333
X034864Y027940
X036864Y027940
X041864Y018349
X013283Y018333
X015283Y018333
X035864Y027940
X037864Y027940
X039864Y027940
X011283Y027924
X038864Y027940
X010283Y027924
X012283Y027924
X014283Y027924
X016283Y027924
X013283Y027924
X015283Y027924
X040864Y027940
X041864Y027940
X023084Y018343
X025084Y018343
X022084Y018343
X024084Y018343
X026084Y018343
X028084Y018343
X027084Y018343
X029084Y018343
X023084Y027934
X025084Y027934
X022084Y027934
X024084Y027934
X026084Y027934
X028084Y027934
X034864Y018349
X036864Y018349
X027084Y027934
X029084Y027934
X035864Y018349
X037864Y018349
X039864Y018349
X009283Y018333
X038864Y018349
T101
X011472Y022042
X039535Y024947
X030069Y018386
X041060Y025972
X015990Y021949
X038776Y025799
X026754Y024941
X041683Y021966
X025995Y025793
X022046Y020653
X017157Y018375
X025101Y013820
X031365Y023756
X013879Y023949
X025907Y015375
X023884Y026626
X029559Y019049
X034101Y016931
X031331Y020677
X044127Y020667
X018453Y023746
X044146Y023762
X013083Y025783
X013842Y024931
X036665Y026632
X037146Y021429
X028902Y021960
X042046Y019135
X024365Y021423
X010796Y019236
X038324Y003153
X039572Y023966
X041294Y024466
X024347Y024960
X026791Y023960
X026407Y014042
X028514Y024460
X011435Y024949
X034590Y023503
X010972Y026616
X021810Y023497
X042850Y018392
X034842Y020690
X034129Y016042
X016681Y019209
X018467Y020746
X028254Y025972
X037127Y024966
X028509Y020245
X011453Y021412
X011768Y019820
X037165Y022058
X024697Y019882
X024384Y022052
X015449Y025959
X015435Y019986
X041127Y020003
X037461Y019836
X015601Y024449
X008898Y023486
X023576Y019713
T102
X043340Y010720
X039340Y010720
X042340Y010720
X044340Y007720
X037340Y010720
X040340Y010720
X036340Y010720
X038340Y007720
X041340Y007720
X033340Y010720
X035340Y007720
X032340Y010720
X034340Y007720
X031340Y007720
X044340Y010720
X038340Y010720
X041340Y010720
X043340Y007720
X039340Y007720
X042340Y007720
X035340Y010720
X037340Y007720
X034340Y010720
X040340Y007720
X036340Y007720
X031340Y010720
X033340Y007720
X032340Y007720
T103
X026695Y001873
X036963Y012456
X035963Y012456
X034963Y012456
X024963Y001873
T00
M30
