G04 MADE WITH FRITZING*
G04 WWW.FRITZING.ORG*
G04 DOUBLE SIDED*
G04 HOLES PLATED*
G04 CONTOUR ON CENTER OF CONTOUR VECTOR*
%ASAXBY*%
%FSLAX23Y23*%
%MOIN*%
%OFA0B0*%
%SFA1.0B1.0*%
%ADD10C,0.049370*%
%ADD11C,0.085000*%
%ADD12C,0.084000*%
%ADD13C,0.206850*%
%ADD14C,0.045433*%
%ADD15C,0.088000*%
%ADD16R,0.069055X0.065118*%
%ADD17R,0.065118X0.069055*%
%ADD18R,0.085000X0.085000*%
%ADD19R,0.072992X0.100551*%
%ADD20R,0.029685X0.108425*%
%ADD21R,0.088740X0.108425*%
%ADD22R,0.057244X0.088740*%
%ADD23R,0.088740X0.057244*%
%ADD24R,0.090000X0.033000*%
%ADD25R,0.045433X0.041496*%
%LNMASK1*%
G90*
G70*
G54D11*
X4434Y1173D03*
X4434Y873D03*
X4334Y1173D03*
X4334Y873D03*
X4234Y1173D03*
X4234Y873D03*
X4134Y1173D03*
X4134Y873D03*
X4034Y1173D03*
X4034Y873D03*
X3934Y1173D03*
X3934Y873D03*
X3834Y1173D03*
X3834Y873D03*
X3734Y1173D03*
X3734Y873D03*
X3634Y1173D03*
X3634Y873D03*
X3534Y1173D03*
X3534Y873D03*
X3434Y1173D03*
X3434Y873D03*
X3334Y1173D03*
X3334Y873D03*
X3234Y1173D03*
X3234Y873D03*
X3134Y1173D03*
X3134Y873D03*
G54D12*
X3596Y1346D03*
X3696Y1346D03*
X3496Y1346D03*
X3596Y1346D03*
X3696Y1346D03*
X3496Y1346D03*
G54D13*
X171Y184D03*
X4938Y184D03*
X4938Y2969D03*
X171Y2969D03*
G54D14*
X2496Y187D03*
X2670Y187D03*
G54D15*
X4146Y2895D03*
X4046Y2895D03*
X3946Y2895D03*
X3846Y2895D03*
X3746Y2895D03*
X3646Y2895D03*
X3546Y2895D03*
X3446Y2895D03*
X2908Y2894D03*
X2808Y2894D03*
X2708Y2894D03*
X2608Y2894D03*
X2508Y2894D03*
X2408Y2894D03*
X2308Y2894D03*
X2208Y2894D03*
X1628Y2893D03*
X1528Y2893D03*
X1428Y2893D03*
X1328Y2893D03*
X1228Y2893D03*
X1128Y2893D03*
X1028Y2893D03*
X928Y2893D03*
X3218Y83D03*
X3118Y83D03*
X3018Y83D03*
X2918Y83D03*
X4146Y1935D03*
X4046Y1935D03*
X3946Y1935D03*
X3846Y1935D03*
X3746Y1935D03*
X3646Y1935D03*
X3546Y1935D03*
X3446Y1935D03*
X2908Y1935D03*
X2808Y1935D03*
X2708Y1935D03*
X2608Y1935D03*
X2508Y1935D03*
X2408Y1935D03*
X2308Y1935D03*
X2208Y1935D03*
X1628Y1934D03*
X1528Y1934D03*
X1428Y1934D03*
X1328Y1934D03*
X1228Y1934D03*
X1128Y1934D03*
X1028Y1934D03*
X928Y1934D03*
G54D16*
X4216Y617D03*
X4216Y698D03*
X4309Y614D03*
X4309Y695D03*
X4121Y617D03*
X4121Y698D03*
G54D17*
X3800Y658D03*
X3881Y658D03*
X4035Y1350D03*
X4116Y1350D03*
X3459Y658D03*
X3539Y658D03*
X2953Y660D03*
X3033Y660D03*
G54D16*
X4216Y417D03*
X4216Y498D03*
X4307Y419D03*
X4307Y500D03*
X4122Y416D03*
X4122Y496D03*
G54D17*
X3811Y1349D03*
X3892Y1349D03*
G54D18*
X4434Y1173D03*
G54D19*
X3344Y662D03*
X3344Y414D03*
X3155Y662D03*
X3155Y414D03*
X3674Y662D03*
X3674Y414D03*
G54D20*
X2583Y286D03*
X2551Y286D03*
X2646Y286D03*
X2614Y286D03*
G54D21*
X2760Y69D03*
X2406Y69D03*
X2760Y286D03*
X2406Y286D03*
G54D20*
X2520Y286D03*
G54D22*
X4415Y2267D03*
X4415Y2377D03*
X3135Y2266D03*
X3135Y2377D03*
G54D23*
X3923Y1474D03*
X3813Y1474D03*
G54D22*
X1845Y2268D03*
X1845Y2379D03*
G54D16*
X3538Y2484D03*
X3538Y2404D03*
X2260Y2484D03*
X2260Y2403D03*
X969Y2483D03*
X969Y2402D03*
G54D24*
X4035Y2148D03*
X4035Y2198D03*
X4035Y2248D03*
X4035Y2298D03*
X4035Y2348D03*
X4035Y2398D03*
X4035Y2448D03*
X4035Y2498D03*
X4035Y2548D03*
X4035Y2598D03*
X4035Y2648D03*
X4035Y2698D03*
X3635Y2148D03*
X3635Y2198D03*
X3635Y2248D03*
X3635Y2298D03*
X3635Y2348D03*
X3635Y2398D03*
X3635Y2448D03*
X3635Y2498D03*
X3635Y2548D03*
X3635Y2598D03*
X3635Y2648D03*
X3635Y2698D03*
X2757Y2147D03*
X2757Y2197D03*
X2757Y2247D03*
X2757Y2297D03*
X2757Y2347D03*
X2757Y2397D03*
X2757Y2447D03*
X2757Y2497D03*
X2757Y2547D03*
X2757Y2597D03*
X2757Y2647D03*
X2757Y2697D03*
X2357Y2147D03*
X2357Y2197D03*
X2357Y2247D03*
X2357Y2297D03*
X2357Y2347D03*
X2357Y2397D03*
X2357Y2447D03*
X2357Y2497D03*
X2357Y2547D03*
X2357Y2597D03*
X2357Y2647D03*
X2357Y2697D03*
X1466Y2146D03*
X1466Y2196D03*
X1466Y2246D03*
X1466Y2296D03*
X1466Y2346D03*
X1466Y2396D03*
X1466Y2446D03*
X1466Y2496D03*
X1466Y2546D03*
X1466Y2596D03*
X1466Y2646D03*
X1466Y2696D03*
X1066Y2146D03*
X1066Y2196D03*
X1066Y2246D03*
X1066Y2296D03*
X1066Y2346D03*
X1066Y2396D03*
X1066Y2446D03*
X1066Y2496D03*
X1066Y2546D03*
X1066Y2596D03*
X1066Y2646D03*
X1066Y2696D03*
G54D25*
X4290Y1350D03*
X4290Y1275D03*
X4369Y1313D03*
G04 End of Mask1*
M02*