G04 MADE WITH FRITZING*
G04 WWW.FRITZING.ORG*
G04 DOUBLE SIDED*
G04 HOLES PLATED*
G04 CONTOUR ON CENTER OF CONTOUR VECTOR*
%ASAXBY*%
%FSLAX23Y23*%
%MOIN*%
%OFA0B0*%
%SFA1.0B1.0*%
%ADD10C,0.039370*%
%ADD11C,0.075000*%
%ADD12C,0.074000*%
%ADD13C,0.035433*%
%ADD14C,0.078000*%
%ADD15R,0.055118X0.059055*%
%ADD16R,0.075000X0.075000*%
%ADD17R,0.062992X0.090551*%
%ADD18R,0.019685X0.098425*%
%ADD19R,0.078740X0.098425*%
%ADD20R,0.047244X0.078740*%
%ADD21R,0.078740X0.047244*%
%ADD22R,0.059055X0.055118*%
%ADD23R,0.080000X0.023000*%
%ADD24C,0.024000*%
%LNCOPPER1*%
G90*
G70*
G54D10*
X2641Y1404D03*
X3413Y1604D03*
X3410Y1693D03*
X2510Y1382D03*
X2591Y1538D03*
X1668Y1921D03*
G54D11*
X4434Y1072D03*
X4434Y772D03*
X4334Y1072D03*
X4334Y772D03*
X4234Y1072D03*
X4234Y772D03*
X4134Y1072D03*
X4134Y772D03*
X4034Y1072D03*
X4034Y772D03*
X3934Y1072D03*
X3934Y772D03*
X3834Y1072D03*
X3834Y772D03*
X3734Y1072D03*
X3734Y772D03*
X3634Y1072D03*
X3634Y772D03*
X3534Y1072D03*
X3534Y772D03*
X3434Y1072D03*
X3434Y772D03*
X3334Y1072D03*
X3334Y772D03*
X3234Y1072D03*
X3234Y772D03*
X3134Y1072D03*
X3134Y772D03*
G54D12*
X3596Y1246D03*
X3696Y1246D03*
X3496Y1246D03*
X3596Y1246D03*
X3696Y1246D03*
X3496Y1246D03*
G54D10*
X1080Y1924D03*
X2205Y2065D03*
X3484Y2069D03*
X2956Y1905D03*
X4205Y1914D03*
X2358Y1971D03*
X4106Y2597D03*
X2825Y2597D03*
X1545Y2596D03*
G54D13*
X2496Y187D03*
X2670Y187D03*
G54D10*
X4113Y2000D03*
X2851Y2025D03*
X1544Y1999D03*
X4415Y2376D03*
X3137Y2376D03*
X1845Y2375D03*
X4413Y2067D03*
X3133Y2068D03*
X1847Y2075D03*
X4285Y1839D03*
X3007Y1839D03*
X1716Y1838D03*
X3957Y2397D03*
X2679Y2396D03*
X1388Y2395D03*
X3715Y2143D03*
X2437Y2142D03*
X1145Y2141D03*
X3717Y2206D03*
X2438Y2205D03*
X1147Y2204D03*
X3459Y2350D03*
X2181Y2350D03*
X890Y2349D03*
X3954Y2495D03*
X2675Y2494D03*
X1384Y2493D03*
X3667Y2663D03*
X2388Y2663D03*
X1097Y2662D03*
X3713Y2497D03*
X2435Y2496D03*
X1144Y2495D03*
X3878Y2580D03*
X2600Y2579D03*
X1308Y2578D03*
X4168Y2197D03*
X2890Y2196D03*
X1599Y2195D03*
X4129Y2447D03*
X2851Y2446D03*
X1560Y2445D03*
X3746Y1984D03*
X2470Y1988D03*
X1177Y1982D03*
G54D14*
X4186Y2794D03*
X4086Y2794D03*
X3986Y2794D03*
X3886Y2794D03*
X3786Y2794D03*
X3686Y2794D03*
X3586Y2794D03*
X3486Y2794D03*
X2908Y2793D03*
X2808Y2793D03*
X2708Y2793D03*
X2608Y2793D03*
X2508Y2793D03*
X2408Y2793D03*
X2308Y2793D03*
X2208Y2793D03*
X1628Y2792D03*
X1528Y2792D03*
X1428Y2792D03*
X1328Y2792D03*
X1228Y2792D03*
X1128Y2792D03*
X1028Y2792D03*
X928Y2792D03*
X4186Y1835D03*
X4086Y1835D03*
X3986Y1835D03*
X3886Y1835D03*
X3786Y1835D03*
X3686Y1835D03*
X3586Y1835D03*
X3486Y1835D03*
X2908Y1834D03*
X2808Y1834D03*
X2708Y1834D03*
X2608Y1834D03*
X2508Y1834D03*
X2408Y1834D03*
X2308Y1834D03*
X2208Y1834D03*
X1628Y1833D03*
X1528Y1833D03*
X1428Y1833D03*
X1328Y1833D03*
X1228Y1833D03*
X1128Y1833D03*
X1028Y1833D03*
X928Y1833D03*
G54D10*
X3832Y315D03*
G54D15*
X3811Y1249D03*
X3892Y1249D03*
G54D16*
X4434Y1072D03*
G54D17*
X3344Y562D03*
X3344Y314D03*
X3674Y562D03*
X3674Y314D03*
X3155Y562D03*
X3155Y314D03*
G54D18*
X2583Y286D03*
X2551Y286D03*
X2646Y286D03*
X2614Y286D03*
G54D19*
X2760Y69D03*
X2406Y69D03*
X2760Y286D03*
X2406Y286D03*
G54D18*
X2520Y286D03*
G54D20*
X4415Y2166D03*
X4415Y2277D03*
X3135Y2166D03*
X3135Y2276D03*
X1845Y2168D03*
X1845Y2278D03*
G54D21*
X3923Y1373D03*
X3813Y1373D03*
G54D22*
X3538Y2384D03*
X3538Y2303D03*
X2260Y2383D03*
X2260Y2303D03*
X969Y2382D03*
X969Y2302D03*
G54D23*
X4035Y2047D03*
X4035Y2097D03*
X4035Y2147D03*
X4035Y2197D03*
X4035Y2247D03*
X4035Y2297D03*
X4035Y2347D03*
X4035Y2397D03*
X4035Y2447D03*
X4035Y2497D03*
X4035Y2547D03*
X4035Y2597D03*
X3635Y2047D03*
X3635Y2097D03*
X3635Y2147D03*
X3635Y2197D03*
X3635Y2247D03*
X3635Y2297D03*
X3635Y2347D03*
X3635Y2397D03*
X3635Y2447D03*
X3635Y2497D03*
X3635Y2547D03*
X3635Y2597D03*
X2757Y2047D03*
X2757Y2097D03*
X2757Y2147D03*
X2757Y2197D03*
X2757Y2247D03*
X2757Y2297D03*
X2757Y2347D03*
X2757Y2397D03*
X2757Y2447D03*
X2757Y2497D03*
X2757Y2547D03*
X2757Y2597D03*
X2357Y2047D03*
X2357Y2097D03*
X2357Y2147D03*
X2357Y2197D03*
X2357Y2247D03*
X2357Y2297D03*
X2357Y2347D03*
X2357Y2397D03*
X2357Y2447D03*
X2357Y2497D03*
X2357Y2547D03*
X2357Y2597D03*
X1466Y2046D03*
X1466Y2096D03*
X1466Y2146D03*
X1466Y2196D03*
X1466Y2246D03*
X1466Y2296D03*
X1466Y2346D03*
X1466Y2396D03*
X1466Y2446D03*
X1466Y2496D03*
X1466Y2546D03*
X1466Y2596D03*
X1066Y2046D03*
X1066Y2096D03*
X1066Y2146D03*
X1066Y2196D03*
X1066Y2246D03*
X1066Y2296D03*
X1066Y2346D03*
X1066Y2396D03*
X1066Y2446D03*
X1066Y2496D03*
X1066Y2546D03*
X1066Y2596D03*
G54D15*
X2953Y560D03*
X3033Y560D03*
G54D22*
X4216Y517D03*
X4216Y597D03*
X4121Y517D03*
X4121Y597D03*
G54D15*
X3800Y557D03*
X3881Y557D03*
X3459Y557D03*
X3539Y557D03*
G54D22*
X4122Y315D03*
X4122Y396D03*
X4216Y317D03*
X4216Y397D03*
G54D24*
X3235Y1693D02*
X3238Y2376D01*
D02*
X2658Y1413D02*
X3235Y1693D01*
D02*
X3238Y2376D02*
X3156Y2376D01*
D02*
X3302Y1534D02*
X3332Y1101D01*
D02*
X3311Y2516D02*
X3302Y1534D01*
D02*
X3429Y2599D02*
X3311Y2516D01*
D02*
X3705Y772D02*
X3663Y772D01*
D02*
X3825Y1045D02*
X3743Y799D01*
D02*
X3843Y1099D02*
X3884Y1225D01*
D02*
X3746Y1098D02*
X3801Y1225D01*
D02*
X2716Y1538D02*
X3135Y1738D01*
D02*
X3135Y1738D02*
X3133Y2049D01*
D02*
X2610Y1538D02*
X2716Y1538D01*
D02*
X2510Y1363D02*
X2520Y329D01*
D02*
X4319Y1693D02*
X4416Y1776D01*
D02*
X4416Y1776D02*
X4413Y2048D01*
D02*
X3429Y1693D02*
X4319Y1693D01*
D02*
X4552Y2379D02*
X4434Y2377D01*
D02*
X4560Y1732D02*
X4552Y2379D01*
D02*
X4491Y1601D02*
X4560Y1732D01*
D02*
X3432Y1604D02*
X4491Y1601D01*
D02*
X4385Y988D02*
X3913Y993D01*
D02*
X3913Y993D02*
X3854Y1052D01*
D02*
X4420Y1047D02*
X4385Y988D01*
D02*
X3644Y1099D02*
X3687Y1220D01*
D02*
X3528Y1100D02*
X3502Y1219D01*
D02*
X1592Y2072D02*
X1549Y2073D01*
D02*
X1549Y2073D02*
X1521Y2046D01*
D02*
X1521Y2046D02*
X1500Y2046D01*
D02*
X1660Y1938D02*
X1592Y2072D01*
D02*
X3429Y2599D02*
X3600Y2598D01*
D02*
X3078Y2899D02*
X3429Y2599D01*
D02*
X1916Y2900D02*
X3078Y2899D01*
D02*
X2191Y2596D02*
X1916Y2900D01*
D02*
X1916Y2900D02*
X907Y2899D01*
D02*
X907Y2899D02*
X848Y2860D01*
D02*
X848Y2860D02*
X849Y2726D01*
D02*
X849Y2726D02*
X907Y2593D01*
D02*
X907Y2593D02*
X1031Y2595D01*
D02*
X2322Y2597D02*
X2191Y2596D01*
D02*
X4166Y2048D02*
X4069Y2048D01*
D02*
X4199Y1932D02*
X4166Y2048D01*
D02*
X2357Y1990D02*
X2357Y2041D01*
D02*
X2829Y2083D02*
X2805Y2047D01*
D02*
X2805Y2047D02*
X2791Y2047D01*
D02*
X2886Y2082D02*
X2829Y2083D01*
D02*
X2949Y1923D02*
X2886Y2082D01*
D02*
X3484Y2050D02*
X3486Y1865D01*
D02*
X2205Y2046D02*
X2208Y1864D01*
D02*
X1077Y1943D02*
X1066Y2040D01*
D02*
X1526Y2596D02*
X1500Y2596D01*
D02*
X2806Y2597D02*
X2791Y2597D01*
D02*
X4087Y2597D02*
X4069Y2597D01*
D02*
X4121Y1983D02*
X4174Y1862D01*
D02*
X2856Y2006D02*
X2900Y1863D01*
D02*
X1552Y1982D02*
X1615Y1860D01*
D02*
X4279Y2080D02*
X4118Y2147D01*
D02*
X3001Y2079D02*
X2840Y2146D01*
D02*
X1710Y2078D02*
X1549Y2145D01*
D02*
X4118Y2147D02*
X4069Y2147D01*
D02*
X2840Y2146D02*
X2791Y2147D01*
D02*
X1549Y2145D02*
X1500Y2145D01*
D02*
X4285Y1858D02*
X4279Y2080D01*
D02*
X3007Y1858D02*
X3001Y2079D01*
D02*
X1715Y1857D02*
X1710Y2078D01*
D02*
X2127Y1574D02*
X1985Y1715D01*
D02*
X1985Y1715D02*
X1854Y2057D01*
D02*
X2493Y1391D02*
X2127Y1574D01*
D02*
X2641Y1385D02*
X2646Y329D01*
D02*
X2166Y1643D02*
X2624Y1413D01*
D02*
X2069Y1749D02*
X2166Y1643D01*
D02*
X1921Y2374D02*
X2069Y1749D01*
D02*
X1864Y2374D02*
X1921Y2374D01*
D02*
X4413Y2086D02*
X4414Y2133D01*
D02*
X3134Y2087D02*
X3134Y2132D01*
D02*
X1846Y2094D02*
X1846Y2134D01*
D02*
X4415Y2357D02*
X4415Y2310D01*
D02*
X3136Y2357D02*
X3136Y2310D01*
D02*
X1845Y2356D02*
X1845Y2312D01*
D02*
X4187Y2423D02*
X4187Y2764D01*
D02*
X2909Y2422D02*
X2908Y2763D01*
D02*
X1629Y2421D02*
X1628Y2762D01*
D02*
X4145Y2693D02*
X4102Y2768D01*
D02*
X2866Y2689D02*
X2823Y2767D01*
D02*
X1589Y2686D02*
X1543Y2766D01*
D02*
X4148Y2547D02*
X4145Y2693D01*
D02*
X2869Y2547D02*
X2866Y2689D01*
D02*
X1589Y2546D02*
X1589Y2686D01*
D02*
X4139Y2348D02*
X4187Y2423D01*
D02*
X2861Y2348D02*
X2909Y2422D01*
D02*
X1581Y2347D02*
X1629Y2421D01*
D02*
X4069Y2348D02*
X4139Y2348D01*
D02*
X2791Y2347D02*
X2861Y2348D01*
D02*
X1500Y2346D02*
X1581Y2347D01*
D02*
X4069Y2547D02*
X4148Y2547D01*
D02*
X2791Y2547D02*
X2869Y2547D01*
D02*
X1500Y2546D02*
X1589Y2546D01*
D02*
X3848Y2091D02*
X3882Y1865D01*
D02*
X2570Y2090D02*
X2604Y1864D01*
D02*
X1290Y2089D02*
X1324Y1863D01*
D02*
X3446Y1760D02*
X3642Y1758D01*
D02*
X2168Y1759D02*
X2364Y1757D01*
D02*
X888Y1758D02*
X1084Y1756D01*
D02*
X4057Y1915D02*
X4076Y1863D01*
D02*
X2779Y1915D02*
X2798Y1863D01*
D02*
X1499Y1914D02*
X1518Y1862D01*
D02*
X3929Y2000D02*
X4057Y1915D01*
D02*
X2651Y2000D02*
X2779Y1915D01*
D02*
X1371Y1999D02*
X1499Y1914D01*
D02*
X3789Y2576D02*
X3787Y2764D01*
D02*
X2511Y2576D02*
X2509Y2763D01*
D02*
X1231Y2575D02*
X1229Y2762D01*
D02*
X4298Y2374D02*
X4294Y2789D01*
D02*
X3020Y2374D02*
X3016Y2789D01*
D02*
X1740Y2373D02*
X1736Y2788D01*
D02*
X4294Y2789D02*
X4265Y2865D01*
D02*
X3016Y2789D02*
X2987Y2865D01*
D02*
X1736Y2788D02*
X1706Y2863D01*
D02*
X4278Y2297D02*
X4298Y2374D01*
D02*
X3000Y2296D02*
X3020Y2374D01*
D02*
X1719Y2295D02*
X1740Y2373D01*
D02*
X3742Y2548D02*
X3929Y2000D01*
D02*
X2464Y2548D02*
X2651Y2000D01*
D02*
X1184Y2547D02*
X1371Y1999D01*
D02*
X3637Y2867D02*
X3604Y2819D01*
D02*
X2359Y2866D02*
X2326Y2818D01*
D02*
X1079Y2865D02*
X1045Y2817D01*
D02*
X3744Y2397D02*
X3848Y2091D01*
D02*
X2466Y2396D02*
X2570Y2090D01*
D02*
X1186Y2395D02*
X1290Y2089D01*
D02*
X3398Y2447D02*
X3398Y1806D01*
D02*
X2120Y2446D02*
X2120Y1805D01*
D02*
X840Y2445D02*
X840Y1804D01*
D02*
X3398Y1806D02*
X3446Y1760D01*
D02*
X2120Y1805D02*
X2168Y1759D01*
D02*
X840Y1804D02*
X888Y1758D01*
D02*
X3642Y1758D02*
X3672Y1809D01*
D02*
X2364Y1757D02*
X2393Y1808D01*
D02*
X1084Y1756D02*
X1113Y1807D01*
D02*
X3950Y2098D02*
X3789Y2576D01*
D02*
X2672Y2098D02*
X2511Y2576D01*
D02*
X1392Y2097D02*
X1231Y2575D01*
D02*
X4265Y2865D02*
X3637Y2867D01*
D02*
X2987Y2865D02*
X2359Y2866D01*
D02*
X1706Y2863D02*
X1079Y2865D01*
D02*
X3600Y2447D02*
X3398Y2447D01*
D02*
X2322Y2447D02*
X2120Y2446D01*
D02*
X1031Y2446D02*
X840Y2445D01*
D02*
X3669Y2397D02*
X3744Y2397D01*
D02*
X2391Y2397D02*
X2466Y2396D01*
D02*
X1100Y2396D02*
X1186Y2395D01*
D02*
X3669Y2548D02*
X3742Y2548D01*
D02*
X2391Y2547D02*
X2464Y2548D01*
D02*
X1100Y2546D02*
X1184Y2547D01*
D02*
X4069Y2297D02*
X4278Y2297D01*
D02*
X2791Y2297D02*
X3000Y2296D01*
D02*
X1500Y2296D02*
X1719Y2295D01*
D02*
X4000Y2098D02*
X3950Y2098D01*
D02*
X2722Y2097D02*
X2672Y2098D01*
D02*
X1431Y2096D02*
X1392Y2097D01*
D02*
X4338Y2104D02*
X4342Y1803D01*
D02*
X3053Y2113D02*
X3059Y1799D01*
D02*
X1758Y2126D02*
X1762Y1802D01*
D02*
X4342Y1803D02*
X4239Y1765D01*
D02*
X3059Y1799D02*
X2961Y1765D01*
D02*
X1762Y1802D02*
X1681Y1763D01*
D02*
X3541Y1991D02*
X3578Y1864D01*
D02*
X2263Y1990D02*
X2300Y1863D01*
D02*
X982Y1989D02*
X1020Y1862D01*
D02*
X3600Y2299D02*
X3562Y2302D01*
D02*
X2322Y2299D02*
X2284Y2301D01*
D02*
X1031Y2298D02*
X993Y2300D01*
D02*
X3461Y2248D02*
X3600Y2248D01*
D02*
X2183Y2248D02*
X2322Y2247D01*
D02*
X892Y2247D02*
X1031Y2246D01*
D02*
X3459Y2331D02*
X3461Y2248D01*
D02*
X2181Y2331D02*
X2183Y2248D01*
D02*
X890Y2330D02*
X892Y2247D01*
D02*
X3698Y2204D02*
X3669Y2201D01*
D02*
X2420Y2203D02*
X2391Y2200D01*
D02*
X1128Y2202D02*
X1100Y2199D01*
D02*
X3696Y2144D02*
X3669Y2145D01*
D02*
X2418Y2143D02*
X2391Y2145D01*
D02*
X1126Y2142D02*
X1100Y2144D01*
D02*
X3976Y2397D02*
X4000Y2397D01*
D02*
X2698Y2396D02*
X2722Y2396D01*
D02*
X1407Y2395D02*
X1431Y2395D01*
D02*
X3542Y2098D02*
X3541Y1991D01*
D02*
X2264Y2098D02*
X2263Y1990D01*
D02*
X984Y2097D02*
X982Y1989D01*
D02*
X4033Y1765D02*
X4003Y1810D01*
D02*
X2755Y1765D02*
X2725Y1809D01*
D02*
X1475Y1764D02*
X1445Y1808D01*
D02*
X4239Y1765D02*
X4033Y1765D01*
D02*
X2961Y1765D02*
X2755Y1765D01*
D02*
X1681Y1764D02*
X1475Y1764D01*
D02*
X4204Y2247D02*
X4338Y2104D01*
D02*
X2925Y2246D02*
X3053Y2113D01*
D02*
X1645Y2245D02*
X1758Y2126D01*
D02*
X4069Y2247D02*
X4204Y2247D01*
D02*
X2791Y2247D02*
X2925Y2246D01*
D02*
X1500Y2246D02*
X1645Y2245D01*
D02*
X3600Y2098D02*
X3542Y2098D01*
D02*
X2322Y2097D02*
X2264Y2098D01*
D02*
X1031Y2096D02*
X984Y2097D01*
D02*
X3790Y2147D02*
X3751Y2002D01*
D02*
X2512Y2143D02*
X2475Y2007D01*
D02*
X1229Y2145D02*
X1183Y2000D01*
D02*
X3736Y2299D02*
X3790Y2147D01*
D02*
X2458Y2297D02*
X2512Y2143D01*
D02*
X1173Y2297D02*
X1229Y2145D01*
D02*
X3669Y2298D02*
X3736Y2299D01*
D02*
X2391Y2297D02*
X2458Y2297D01*
D02*
X1100Y2296D02*
X1173Y2297D01*
D02*
X4110Y2447D02*
X4069Y2447D01*
D02*
X2832Y2446D02*
X2791Y2447D01*
D02*
X1541Y2445D02*
X1500Y2445D01*
D02*
X4149Y2197D02*
X4069Y2197D01*
D02*
X2871Y2196D02*
X2791Y2197D01*
D02*
X1580Y2195D02*
X1500Y2196D01*
D02*
X3511Y2719D02*
X3496Y2765D01*
D02*
X2233Y2718D02*
X2218Y2765D01*
D02*
X953Y2717D02*
X938Y2764D01*
D02*
X3886Y2597D02*
X3973Y2767D01*
D02*
X2608Y2596D02*
X2695Y2767D01*
D02*
X1318Y2595D02*
X1414Y2766D01*
D02*
X3694Y2497D02*
X3669Y2497D01*
D02*
X2416Y2496D02*
X2391Y2496D01*
D02*
X1125Y2495D02*
X1100Y2495D01*
D02*
X3649Y2670D02*
X3511Y2719D01*
D02*
X2371Y2669D02*
X2233Y2718D01*
D02*
X1080Y2668D02*
X953Y2717D01*
D02*
X3973Y2495D02*
X4000Y2496D01*
D02*
X2694Y2495D02*
X2722Y2496D01*
D02*
X1403Y2494D02*
X1431Y2495D01*
D02*
X3568Y2384D02*
X3562Y2384D01*
D02*
X2290Y2383D02*
X2284Y2383D01*
D02*
X999Y2382D02*
X993Y2382D01*
D02*
X3589Y2348D02*
X3568Y2384D01*
D02*
X2311Y2348D02*
X2290Y2383D01*
D02*
X1019Y2347D02*
X999Y2382D01*
D02*
X3600Y2348D02*
X3589Y2348D01*
D02*
X2322Y2348D02*
X2311Y2348D01*
D02*
X1031Y2347D02*
X1019Y2347D01*
D02*
X3812Y1272D02*
X3813Y1355D01*
D02*
X3898Y1272D02*
X3919Y1355D01*
D02*
X3049Y988D02*
X2654Y1391D01*
D02*
X3708Y984D02*
X3049Y988D01*
D02*
X3726Y1045D02*
X3708Y984D01*
D02*
X3351Y1638D02*
X3351Y1551D01*
D02*
X3351Y1551D02*
X3405Y1510D01*
D02*
X3396Y1680D02*
X3351Y1638D01*
D02*
X3405Y1510D02*
X3890Y1514D01*
D02*
X3890Y1514D02*
X3919Y1391D01*
D02*
X3541Y657D02*
X3536Y743D01*
D02*
X3648Y580D02*
X3541Y657D01*
D02*
X3700Y561D02*
X3778Y558D01*
D02*
X3738Y696D02*
X3877Y626D01*
D02*
X3736Y743D02*
X3738Y696D01*
D02*
X3877Y626D02*
X3880Y581D01*
D02*
X3151Y601D02*
X3137Y744D01*
D02*
X3323Y601D02*
X3247Y747D01*
D02*
X3437Y558D02*
X3369Y561D01*
D02*
X3560Y471D02*
X3545Y533D01*
D02*
X3860Y474D02*
X3560Y471D01*
D02*
X3875Y533D02*
X3860Y474D01*
D02*
X3129Y561D02*
X3055Y560D01*
D02*
X3510Y471D02*
X2982Y468D01*
D02*
X3531Y533D02*
X3510Y471D01*
D02*
X2982Y468D02*
X2960Y536D01*
D02*
X3318Y314D02*
X3181Y314D01*
D02*
X3648Y314D02*
X3369Y314D01*
D02*
X3813Y315D02*
X3700Y314D01*
D02*
X3851Y315D02*
X4098Y315D01*
D02*
X4146Y316D02*
X4192Y316D01*
D02*
X4121Y495D02*
X4122Y418D01*
D02*
X4216Y419D02*
X4216Y495D01*
D02*
X4192Y597D02*
X4145Y597D01*
D02*
X4535Y743D02*
X4532Y1110D01*
D02*
X4532Y1110D02*
X4477Y1174D01*
D02*
X4088Y1176D02*
X4047Y1097D01*
D02*
X4427Y599D02*
X4535Y743D01*
D02*
X4240Y598D02*
X4427Y599D01*
D02*
X4477Y1174D02*
X4088Y1176D01*
G04 End of Copper1*
M02*