G04 MADE WITH FRITZING*
G04 WWW.FRITZING.ORG*
G04 DOUBLE SIDED*
G04 HOLES PLATED*
G04 CONTOUR ON CENTER OF CONTOUR VECTOR*
%ASAXBY*%
%FSLAX23Y23*%
%MOIN*%
%OFA0B0*%
%SFA1.0B1.0*%
%ADD10C,0.035433*%
%ADD11R,0.055118X0.059055*%
%ADD12R,0.062992X0.090551*%
%ADD13R,0.019685X0.098425*%
%ADD14R,0.078740X0.098425*%
%ADD15R,0.047244X0.078740*%
%ADD16R,0.078740X0.047244*%
%ADD17R,0.059055X0.055118*%
%ADD18R,0.080000X0.023000*%
%LNPASTEMASK1*%
G90*
G70*
G54D10*
X2496Y187D03*
X2670Y187D03*
G54D11*
X3811Y1249D03*
X3892Y1249D03*
G54D12*
X3344Y562D03*
X3344Y314D03*
X3674Y562D03*
X3674Y314D03*
X3155Y562D03*
X3155Y314D03*
G54D13*
X2614Y286D03*
G54D14*
X2760Y69D03*
X2406Y69D03*
X2760Y286D03*
X2406Y286D03*
G54D15*
X4415Y2166D03*
X4415Y2277D03*
X3135Y2166D03*
X3135Y2276D03*
X1845Y2168D03*
X1845Y2278D03*
G54D16*
X3923Y1373D03*
X3813Y1373D03*
G54D17*
X3538Y2384D03*
X3538Y2303D03*
X2260Y2383D03*
X2260Y2303D03*
X969Y2382D03*
X969Y2302D03*
G54D18*
X4035Y2047D03*
X4035Y2097D03*
X4035Y2147D03*
X4035Y2197D03*
X4035Y2247D03*
X4035Y2297D03*
X4035Y2347D03*
X4035Y2397D03*
X4035Y2447D03*
X4035Y2497D03*
X4035Y2547D03*
X4035Y2597D03*
X3635Y2047D03*
X3635Y2097D03*
X3635Y2147D03*
X3635Y2197D03*
X3635Y2247D03*
X3635Y2297D03*
X3635Y2347D03*
X3635Y2397D03*
X3635Y2447D03*
X3635Y2497D03*
X3635Y2547D03*
X3635Y2597D03*
X2757Y2047D03*
X2757Y2097D03*
X2757Y2147D03*
X2757Y2197D03*
X2757Y2247D03*
X2757Y2297D03*
X2757Y2347D03*
X2757Y2397D03*
X2757Y2447D03*
X2757Y2497D03*
X2757Y2547D03*
X2757Y2597D03*
X2357Y2047D03*
X2357Y2097D03*
X2357Y2147D03*
X2357Y2197D03*
X2357Y2247D03*
X2357Y2297D03*
X2357Y2347D03*
X2357Y2397D03*
X2357Y2447D03*
X2357Y2497D03*
X2357Y2547D03*
X2357Y2597D03*
X1466Y2046D03*
X1466Y2096D03*
X1466Y2146D03*
X1466Y2196D03*
X1466Y2246D03*
X1466Y2296D03*
X1466Y2346D03*
X1466Y2396D03*
X1466Y2446D03*
X1466Y2496D03*
X1466Y2546D03*
X1466Y2596D03*
X1066Y2046D03*
X1066Y2096D03*
X1066Y2146D03*
X1066Y2196D03*
X1066Y2246D03*
X1066Y2296D03*
X1066Y2346D03*
X1066Y2396D03*
X1066Y2446D03*
X1066Y2496D03*
X1066Y2546D03*
X1066Y2596D03*
G54D11*
X2953Y560D03*
X3033Y560D03*
G54D17*
X4216Y517D03*
X4216Y597D03*
X4121Y517D03*
X4121Y597D03*
G54D11*
X3800Y557D03*
X3881Y557D03*
X3459Y557D03*
X3539Y557D03*
G54D17*
X4122Y315D03*
X4122Y396D03*
X4216Y317D03*
X4216Y397D03*
G04 End of PasteMask1*
M02*