G04 MADE WITH FRITZING*
G04 WWW.FRITZING.ORG*
G04 DOUBLE SIDED*
G04 HOLES PLATED*
G04 CONTOUR ON CENTER OF CONTOUR VECTOR*
%ASAXBY*%
%FSLAX23Y23*%
%MOIN*%
%OFA0B0*%
%SFA1.0B1.0*%
%ADD10C,0.039370*%
%ADD11C,0.075000*%
%ADD12C,0.074000*%
%ADD13C,0.035433*%
%ADD14C,0.078000*%
%ADD15R,0.035433X0.031496*%
%ADD16R,0.059055X0.055118*%
%ADD17R,0.055118X0.059055*%
%ADD18R,0.075000X0.075000*%
%ADD19R,0.062992X0.090551*%
%ADD20R,0.019685X0.098425*%
%ADD21R,0.078740X0.098425*%
%ADD22R,0.047244X0.078740*%
%ADD23R,0.078740X0.047244*%
%ADD24R,0.080000X0.023000*%
%ADD25C,0.024000*%
%LNCOPPER1*%
G90*
G70*
G54D10*
X3832Y416D03*
X2641Y1505D03*
X3413Y1705D03*
X3410Y1794D03*
X2510Y1483D03*
X2591Y1638D03*
X1668Y2021D03*
G54D11*
X4434Y1173D03*
X4434Y873D03*
X4334Y1173D03*
X4334Y873D03*
X4234Y1173D03*
X4234Y873D03*
X4134Y1173D03*
X4134Y873D03*
X4034Y1173D03*
X4034Y873D03*
X3934Y1173D03*
X3934Y873D03*
X3834Y1173D03*
X3834Y873D03*
X3734Y1173D03*
X3734Y873D03*
X3634Y1173D03*
X3634Y873D03*
X3534Y1173D03*
X3534Y873D03*
X3434Y1173D03*
X3434Y873D03*
X3334Y1173D03*
X3334Y873D03*
X3234Y1173D03*
X3234Y873D03*
X3134Y1173D03*
X3134Y873D03*
G54D12*
X3596Y1346D03*
X3696Y1346D03*
X3496Y1346D03*
X3596Y1346D03*
X3696Y1346D03*
X3496Y1346D03*
G54D10*
X1080Y2024D03*
X2205Y2166D03*
X3484Y2170D03*
X2956Y2005D03*
X4205Y2014D03*
X2358Y2072D03*
X4106Y2698D03*
X2825Y2698D03*
X1545Y2696D03*
G54D13*
X2496Y187D03*
X2670Y187D03*
G54D10*
X4113Y2101D03*
X2851Y2125D03*
X1544Y2099D03*
X4415Y2477D03*
X3137Y2476D03*
X1845Y2475D03*
X4413Y2167D03*
X3133Y2168D03*
X1847Y2175D03*
X4285Y1940D03*
X3007Y1939D03*
X1716Y1938D03*
X3957Y2497D03*
X2679Y2497D03*
X1388Y2495D03*
X3715Y2243D03*
X2437Y2243D03*
X1145Y2242D03*
X3717Y2306D03*
X2438Y2306D03*
X1147Y2305D03*
X3459Y2451D03*
X2181Y2450D03*
X890Y2449D03*
X3954Y2595D03*
X2675Y2595D03*
X1384Y2594D03*
X3667Y2764D03*
X2388Y2763D03*
X1097Y2762D03*
X3713Y2597D03*
X2435Y2597D03*
X1144Y2595D03*
X3878Y2680D03*
X2600Y2680D03*
X1308Y2679D03*
X4168Y2297D03*
X2890Y2297D03*
X1599Y2295D03*
X4129Y2547D03*
X2851Y2547D03*
X1560Y2545D03*
X3746Y2084D03*
X2470Y2089D03*
X1177Y2083D03*
G54D14*
X4146Y2895D03*
X4046Y2895D03*
X3946Y2895D03*
X3846Y2895D03*
X3746Y2895D03*
X3646Y2895D03*
X3546Y2895D03*
X3446Y2895D03*
X2908Y2894D03*
X2808Y2894D03*
X2708Y2894D03*
X2608Y2894D03*
X2508Y2894D03*
X2408Y2894D03*
X2308Y2894D03*
X2208Y2894D03*
X1628Y2893D03*
X1528Y2893D03*
X1428Y2893D03*
X1328Y2893D03*
X1228Y2893D03*
X1128Y2893D03*
X1028Y2893D03*
X928Y2893D03*
X3218Y83D03*
X3118Y83D03*
X3018Y83D03*
X2918Y83D03*
X4146Y1935D03*
X4046Y1935D03*
X3946Y1935D03*
X3846Y1935D03*
X3746Y1935D03*
X3646Y1935D03*
X3546Y1935D03*
X3446Y1935D03*
X2908Y1935D03*
X2808Y1935D03*
X2708Y1935D03*
X2608Y1935D03*
X2508Y1935D03*
X2408Y1935D03*
X2308Y1935D03*
X2208Y1935D03*
X1628Y1934D03*
X1528Y1934D03*
X1428Y1934D03*
X1328Y1934D03*
X1228Y1934D03*
X1128Y1934D03*
X1028Y1934D03*
X928Y1934D03*
G54D15*
X4290Y1350D03*
X4290Y1275D03*
X4369Y1313D03*
G54D16*
X4309Y614D03*
X4309Y695D03*
X4216Y617D03*
X4216Y698D03*
X4121Y617D03*
X4121Y698D03*
G54D17*
X3800Y658D03*
X3881Y658D03*
X4035Y1350D03*
X4116Y1350D03*
X3459Y658D03*
X3539Y658D03*
X2953Y660D03*
X3033Y660D03*
G54D16*
X4307Y419D03*
X4307Y500D03*
X4216Y417D03*
X4216Y498D03*
X4122Y416D03*
X4122Y496D03*
G54D17*
X3811Y1349D03*
X3892Y1349D03*
G54D18*
X4434Y1173D03*
G54D19*
X3344Y662D03*
X3344Y414D03*
X3155Y662D03*
X3155Y414D03*
X3674Y662D03*
X3674Y414D03*
G54D20*
X2583Y286D03*
X2551Y286D03*
X2646Y286D03*
X2614Y286D03*
G54D21*
X2760Y69D03*
X2406Y69D03*
X2760Y286D03*
X2406Y286D03*
G54D20*
X2520Y286D03*
G54D22*
X4415Y2267D03*
X4415Y2377D03*
X3135Y2266D03*
X3135Y2377D03*
G54D23*
X3923Y1474D03*
X3813Y1474D03*
G54D22*
X1845Y2268D03*
X1845Y2379D03*
G54D16*
X3538Y2484D03*
X3538Y2404D03*
X2260Y2484D03*
X2260Y2403D03*
X969Y2483D03*
X969Y2402D03*
G54D24*
X4035Y2148D03*
X4035Y2198D03*
X4035Y2248D03*
X4035Y2298D03*
X4035Y2348D03*
X4035Y2398D03*
X4035Y2448D03*
X4035Y2498D03*
X4035Y2548D03*
X4035Y2598D03*
X4035Y2648D03*
X4035Y2698D03*
X3635Y2148D03*
X3635Y2198D03*
X3635Y2248D03*
X3635Y2298D03*
X3635Y2348D03*
X3635Y2398D03*
X3635Y2448D03*
X3635Y2498D03*
X3635Y2548D03*
X3635Y2598D03*
X3635Y2648D03*
X3635Y2698D03*
X2757Y2147D03*
X2757Y2197D03*
X2757Y2247D03*
X2757Y2297D03*
X2757Y2347D03*
X2757Y2397D03*
X2757Y2447D03*
X2757Y2497D03*
X2757Y2547D03*
X2757Y2597D03*
X2757Y2647D03*
X2757Y2697D03*
X2357Y2147D03*
X2357Y2197D03*
X2357Y2247D03*
X2357Y2297D03*
X2357Y2347D03*
X2357Y2397D03*
X2357Y2447D03*
X2357Y2497D03*
X2357Y2547D03*
X2357Y2597D03*
X2357Y2647D03*
X2357Y2697D03*
X1466Y2146D03*
X1466Y2196D03*
X1466Y2246D03*
X1466Y2296D03*
X1466Y2346D03*
X1466Y2396D03*
X1466Y2446D03*
X1466Y2496D03*
X1466Y2546D03*
X1466Y2596D03*
X1466Y2646D03*
X1466Y2696D03*
X1066Y2146D03*
X1066Y2196D03*
X1066Y2246D03*
X1066Y2296D03*
X1066Y2346D03*
X1066Y2396D03*
X1066Y2446D03*
X1066Y2496D03*
X1066Y2546D03*
X1066Y2596D03*
X1066Y2646D03*
X1066Y2696D03*
G54D25*
X3927Y1019D02*
X4438Y1013D01*
D02*
X4438Y1013D02*
X4516Y1084D01*
D02*
X4516Y1084D02*
X4520Y1199D01*
D02*
X4520Y1199D02*
X4494Y1246D01*
D02*
X4494Y1246D02*
X4294Y1248D01*
D02*
X4294Y1248D02*
X4291Y1265D01*
D02*
X3849Y897D02*
X3927Y1019D01*
D02*
X4278Y1350D02*
X4138Y1350D01*
D02*
X4035Y1326D02*
X4034Y1201D01*
D02*
X4240Y418D02*
X4283Y418D01*
D02*
X4307Y522D02*
X4309Y592D01*
D02*
X4240Y697D02*
X4285Y696D01*
D02*
X4122Y81D02*
X4122Y394D01*
D02*
X4498Y699D02*
X4574Y853D01*
D02*
X4574Y853D02*
X4571Y1213D01*
D02*
X4571Y1213D02*
X4516Y1313D01*
D02*
X4516Y1313D02*
X4381Y1313D01*
D02*
X4333Y696D02*
X4498Y699D01*
D02*
X4122Y81D02*
X3249Y83D01*
D02*
X4454Y190D02*
X4122Y81D01*
D02*
X4627Y408D02*
X4454Y190D01*
D02*
X4620Y1339D02*
X4627Y408D01*
D02*
X4478Y1475D02*
X4620Y1339D01*
D02*
X3957Y1474D02*
X4478Y1475D01*
D02*
X3758Y284D02*
X3194Y279D01*
D02*
X3194Y279D02*
X3129Y111D01*
D02*
X3823Y399D02*
X3758Y284D01*
D02*
X3351Y1738D02*
X3351Y1651D01*
D02*
X3351Y1651D02*
X3405Y1610D01*
D02*
X3405Y1610D02*
X3890Y1614D01*
D02*
X3890Y1614D02*
X3919Y1492D01*
D02*
X3396Y1781D02*
X3351Y1738D01*
D02*
X3049Y1088D02*
X2654Y1491D01*
D02*
X3708Y1084D02*
X3049Y1088D01*
D02*
X3726Y1145D02*
X3708Y1084D01*
D02*
X3898Y1373D02*
X3919Y1456D01*
D02*
X3812Y1373D02*
X3813Y1456D01*
D02*
X3437Y658D02*
X3369Y661D01*
D02*
X3323Y702D02*
X3247Y847D01*
D02*
X3151Y702D02*
X3137Y844D01*
D02*
X3738Y796D02*
X3877Y727D01*
D02*
X3877Y727D02*
X3880Y681D01*
D02*
X3736Y844D02*
X3738Y796D01*
D02*
X3700Y661D02*
X3778Y658D01*
D02*
X3541Y758D02*
X3536Y844D01*
D02*
X3648Y681D02*
X3541Y758D01*
D02*
X3813Y416D02*
X3700Y414D01*
D02*
X3648Y414D02*
X3369Y414D01*
D02*
X3318Y414D02*
X3181Y414D01*
D02*
X3510Y571D02*
X2982Y569D01*
D02*
X2982Y569D02*
X2960Y636D01*
D02*
X3531Y634D02*
X3510Y571D01*
D02*
X3129Y662D02*
X3055Y661D01*
D02*
X3860Y574D02*
X3560Y571D01*
D02*
X3560Y571D02*
X3545Y634D01*
D02*
X3875Y634D02*
X3860Y574D01*
D02*
X4192Y698D02*
X4145Y698D01*
D02*
X4216Y520D02*
X4216Y595D01*
D02*
X4121Y595D02*
X4122Y518D01*
D02*
X4146Y416D02*
X4192Y417D01*
D02*
X3235Y1794D02*
X3238Y2477D01*
D02*
X2658Y1513D02*
X3235Y1794D01*
D02*
X3238Y2477D02*
X3156Y2476D01*
D02*
X3302Y1635D02*
X3332Y1201D01*
D02*
X3311Y2617D02*
X3302Y1635D01*
D02*
X3429Y2699D02*
X3311Y2617D01*
D02*
X3705Y873D02*
X3663Y873D01*
D02*
X3825Y1145D02*
X3743Y900D01*
D02*
X3843Y1200D02*
X3884Y1325D01*
D02*
X3746Y1199D02*
X3801Y1325D01*
D02*
X2716Y1638D02*
X3135Y1838D01*
D02*
X3135Y1838D02*
X3133Y2149D01*
D02*
X2610Y1638D02*
X2716Y1638D01*
D02*
X2510Y1464D02*
X2520Y329D01*
D02*
X4319Y1794D02*
X4416Y1877D01*
D02*
X4416Y1877D02*
X4413Y2148D01*
D02*
X3429Y1794D02*
X4319Y1794D01*
D02*
X4552Y2480D02*
X4434Y2477D01*
D02*
X4560Y1833D02*
X4552Y2480D01*
D02*
X4491Y1702D02*
X4560Y1833D01*
D02*
X3432Y1705D02*
X4491Y1702D01*
D02*
X4385Y1088D02*
X3913Y1094D01*
D02*
X3913Y1094D02*
X3854Y1152D01*
D02*
X4420Y1148D02*
X4385Y1088D01*
D02*
X3644Y1199D02*
X3687Y1321D01*
D02*
X3528Y1200D02*
X3502Y1320D01*
D02*
X1592Y2172D02*
X1549Y2174D01*
D02*
X1549Y2174D02*
X1521Y2147D01*
D02*
X1521Y2147D02*
X1500Y2147D01*
D02*
X1660Y2038D02*
X1592Y2172D01*
D02*
X3429Y2699D02*
X3600Y2698D01*
D02*
X3078Y2999D02*
X3429Y2699D01*
D02*
X1916Y3001D02*
X3078Y2999D01*
D02*
X2191Y2696D02*
X1916Y3001D01*
D02*
X1916Y3001D02*
X907Y2999D01*
D02*
X907Y2999D02*
X848Y2960D01*
D02*
X848Y2960D02*
X849Y2827D01*
D02*
X849Y2827D02*
X907Y2694D01*
D02*
X907Y2694D02*
X1031Y2696D01*
D02*
X2322Y2697D02*
X2191Y2696D01*
D02*
X4166Y2148D02*
X4069Y2148D01*
D02*
X4199Y2032D02*
X4166Y2148D01*
D02*
X2357Y2091D02*
X2357Y2141D01*
D02*
X2829Y2184D02*
X2805Y2147D01*
D02*
X2805Y2147D02*
X2791Y2147D01*
D02*
X2886Y2183D02*
X2829Y2184D01*
D02*
X2949Y2023D02*
X2886Y2183D01*
D02*
X3481Y2151D02*
X3450Y1965D01*
D02*
X2205Y2147D02*
X2208Y1965D01*
D02*
X1077Y2043D02*
X1066Y2140D01*
D02*
X1526Y2696D02*
X1500Y2696D01*
D02*
X2806Y2698D02*
X2791Y2698D01*
D02*
X4087Y2698D02*
X4069Y2698D01*
D02*
X4116Y2082D02*
X4140Y1965D01*
D02*
X2856Y2107D02*
X2900Y1964D01*
D02*
X1552Y2082D02*
X1615Y1961D01*
D02*
X4279Y2180D02*
X4118Y2247D01*
D02*
X3001Y2180D02*
X2840Y2247D01*
D02*
X1710Y2179D02*
X1549Y2245D01*
D02*
X4118Y2247D02*
X4069Y2248D01*
D02*
X2840Y2247D02*
X2791Y2247D01*
D02*
X1549Y2245D02*
X1500Y2246D01*
D02*
X4285Y1959D02*
X4279Y2180D01*
D02*
X3007Y1958D02*
X3001Y2180D01*
D02*
X1715Y1957D02*
X1710Y2179D01*
D02*
X2127Y1674D02*
X1985Y1816D01*
D02*
X1985Y1816D02*
X1854Y2157D01*
D02*
X2493Y1491D02*
X2127Y1674D01*
D02*
X2641Y1486D02*
X2646Y329D01*
D02*
X2166Y1744D02*
X2624Y1513D01*
D02*
X2069Y1849D02*
X2166Y1744D01*
D02*
X1921Y2474D02*
X2069Y1849D01*
D02*
X1864Y2475D02*
X1921Y2474D01*
D02*
X4413Y2186D02*
X4414Y2233D01*
D02*
X3134Y2187D02*
X3134Y2233D01*
D02*
X1846Y2194D02*
X1846Y2235D01*
D02*
X4415Y2458D02*
X4415Y2411D01*
D02*
X3136Y2457D02*
X3136Y2410D01*
D02*
X1845Y2456D02*
X1845Y2413D01*
D02*
X4200Y2808D02*
X4162Y2869D01*
D02*
X4202Y2521D02*
X4200Y2808D01*
D02*
X2909Y2522D02*
X2908Y2864D01*
D02*
X1629Y2521D02*
X1628Y2863D01*
D02*
X4158Y2784D02*
X4067Y2873D01*
D02*
X2866Y2789D02*
X2823Y2868D01*
D02*
X1589Y2787D02*
X1543Y2867D01*
D02*
X4158Y2648D02*
X4158Y2784D01*
D02*
X2869Y2648D02*
X2866Y2789D01*
D02*
X1589Y2646D02*
X1589Y2787D01*
D02*
X4139Y2449D02*
X4202Y2521D01*
D02*
X2861Y2448D02*
X2909Y2522D01*
D02*
X1581Y2447D02*
X1629Y2521D01*
D02*
X4069Y2448D02*
X4139Y2449D01*
D02*
X2791Y2448D02*
X2861Y2448D01*
D02*
X1500Y2447D02*
X1581Y2447D01*
D02*
X4069Y2648D02*
X4158Y2648D01*
D02*
X2791Y2647D02*
X2869Y2648D01*
D02*
X1500Y2646D02*
X1589Y2646D01*
D02*
X3848Y2192D02*
X3846Y1966D01*
D02*
X2570Y2191D02*
X2604Y1965D01*
D02*
X1290Y2190D02*
X1324Y1964D01*
D02*
X3407Y1859D02*
X3642Y1858D01*
D02*
X2168Y1859D02*
X2364Y1858D01*
D02*
X888Y1858D02*
X1084Y1857D01*
D02*
X4057Y2016D02*
X4050Y1965D01*
D02*
X2779Y2015D02*
X2798Y1963D01*
D02*
X1499Y2014D02*
X1518Y1962D01*
D02*
X3929Y2101D02*
X4057Y2016D01*
D02*
X2651Y2100D02*
X2779Y2015D01*
D02*
X1371Y2099D02*
X1499Y2014D01*
D02*
X3789Y2677D02*
X3751Y2865D01*
D02*
X2511Y2676D02*
X2509Y2864D01*
D02*
X1231Y2675D02*
X1229Y2863D01*
D02*
X4298Y2475D02*
X4294Y2890D01*
D02*
X3020Y2474D02*
X3016Y2889D01*
D02*
X1740Y2473D02*
X1736Y2888D01*
D02*
X4294Y2890D02*
X4265Y2966D01*
D02*
X3016Y2889D02*
X2987Y2965D01*
D02*
X1736Y2888D02*
X1706Y2964D01*
D02*
X4278Y2397D02*
X4298Y2475D01*
D02*
X3000Y2397D02*
X3020Y2474D01*
D02*
X1719Y2395D02*
X1740Y2473D01*
D02*
X3742Y2649D02*
X3929Y2101D01*
D02*
X2464Y2648D02*
X2651Y2100D01*
D02*
X1184Y2647D02*
X1371Y2099D01*
D02*
X3637Y2967D02*
X3569Y2913D01*
D02*
X2359Y2967D02*
X2326Y2919D01*
D02*
X1079Y2966D02*
X1045Y2918D01*
D02*
X3744Y2497D02*
X3848Y2192D01*
D02*
X2466Y2497D02*
X2570Y2191D01*
D02*
X1186Y2495D02*
X1290Y2190D01*
D02*
X3358Y2548D02*
X3356Y1899D01*
D02*
X2120Y2547D02*
X2120Y1906D01*
D02*
X840Y2545D02*
X840Y1905D01*
D02*
X3356Y1899D02*
X3407Y1859D01*
D02*
X2120Y1906D02*
X2168Y1859D01*
D02*
X840Y1905D02*
X888Y1858D01*
D02*
X3642Y1858D02*
X3644Y1905D01*
D02*
X2364Y1858D02*
X2393Y1909D01*
D02*
X1084Y1857D02*
X1113Y1908D01*
D02*
X3950Y2199D02*
X3789Y2677D01*
D02*
X2672Y2198D02*
X2511Y2676D01*
D02*
X1392Y2197D02*
X1231Y2675D01*
D02*
X4265Y2966D02*
X3637Y2967D01*
D02*
X2987Y2965D02*
X2359Y2967D01*
D02*
X1706Y2964D02*
X1079Y2966D01*
D02*
X3600Y2548D02*
X3358Y2548D01*
D02*
X2322Y2547D02*
X2120Y2547D01*
D02*
X1031Y2546D02*
X840Y2545D01*
D02*
X3669Y2498D02*
X3744Y2497D01*
D02*
X2391Y2497D02*
X2466Y2497D01*
D02*
X1100Y2496D02*
X1186Y2495D01*
D02*
X3669Y2648D02*
X3742Y2649D01*
D02*
X2391Y2648D02*
X2464Y2648D01*
D02*
X1100Y2647D02*
X1184Y2647D01*
D02*
X4069Y2398D02*
X4278Y2397D01*
D02*
X2791Y2397D02*
X3000Y2397D01*
D02*
X1500Y2396D02*
X1719Y2395D01*
D02*
X4000Y2198D02*
X3950Y2199D01*
D02*
X2722Y2198D02*
X2672Y2198D01*
D02*
X1431Y2197D02*
X1392Y2197D01*
D02*
X4338Y2205D02*
X4342Y1903D01*
D02*
X3053Y2213D02*
X3059Y1899D01*
D02*
X1758Y2227D02*
X1762Y1903D01*
D02*
X4342Y1903D02*
X4239Y1866D01*
D02*
X3059Y1899D02*
X2961Y1865D01*
D02*
X1762Y1903D02*
X1681Y1864D01*
D02*
X3541Y2092D02*
X3545Y1966D01*
D02*
X2263Y2091D02*
X2300Y1964D01*
D02*
X982Y2090D02*
X1020Y1963D01*
D02*
X3600Y2400D02*
X3562Y2402D01*
D02*
X2322Y2399D02*
X2284Y2402D01*
D02*
X1031Y2398D02*
X993Y2401D01*
D02*
X3461Y2349D02*
X3600Y2348D01*
D02*
X2183Y2348D02*
X2322Y2348D01*
D02*
X892Y2347D02*
X1031Y2346D01*
D02*
X3459Y2432D02*
X3461Y2349D01*
D02*
X2181Y2431D02*
X2183Y2348D01*
D02*
X890Y2430D02*
X892Y2347D01*
D02*
X3698Y2304D02*
X3669Y2302D01*
D02*
X2420Y2304D02*
X2391Y2301D01*
D02*
X1128Y2303D02*
X1100Y2300D01*
D02*
X3696Y2244D02*
X3669Y2246D01*
D02*
X2418Y2244D02*
X2391Y2245D01*
D02*
X1126Y2243D02*
X1100Y2244D01*
D02*
X3976Y2497D02*
X4000Y2498D01*
D02*
X2698Y2497D02*
X2722Y2497D01*
D02*
X1407Y2496D02*
X1431Y2496D01*
D02*
X3542Y2199D02*
X3541Y2092D01*
D02*
X2264Y2198D02*
X2263Y2091D01*
D02*
X984Y2197D02*
X982Y2090D01*
D02*
X4033Y1866D02*
X3969Y1917D01*
D02*
X2755Y1865D02*
X2725Y1910D01*
D02*
X1475Y1864D02*
X1445Y1909D01*
D02*
X4239Y1866D02*
X4033Y1866D01*
D02*
X2961Y1865D02*
X2755Y1865D01*
D02*
X1681Y1864D02*
X1475Y1864D01*
D02*
X4204Y2347D02*
X4338Y2205D01*
D02*
X2925Y2347D02*
X3053Y2213D01*
D02*
X1645Y2345D02*
X1758Y2227D01*
D02*
X4069Y2348D02*
X4204Y2347D01*
D02*
X2791Y2347D02*
X2925Y2347D01*
D02*
X1500Y2346D02*
X1645Y2345D01*
D02*
X3600Y2198D02*
X3542Y2199D01*
D02*
X2322Y2198D02*
X2264Y2198D01*
D02*
X1031Y2197D02*
X984Y2197D01*
D02*
X3790Y2247D02*
X3751Y2103D01*
D02*
X2512Y2244D02*
X2475Y2107D01*
D02*
X1229Y2245D02*
X1183Y2101D01*
D02*
X3736Y2399D02*
X3790Y2247D01*
D02*
X2458Y2397D02*
X2512Y2244D01*
D02*
X1173Y2397D02*
X1229Y2245D01*
D02*
X3669Y2398D02*
X3736Y2399D01*
D02*
X2391Y2397D02*
X2458Y2397D01*
D02*
X1100Y2397D02*
X1173Y2397D01*
D02*
X4110Y2547D02*
X4069Y2548D01*
D02*
X2832Y2547D02*
X2791Y2547D01*
D02*
X1541Y2546D02*
X1500Y2546D01*
D02*
X4149Y2297D02*
X4069Y2298D01*
D02*
X2871Y2297D02*
X2791Y2297D01*
D02*
X1580Y2296D02*
X1500Y2296D01*
D02*
X3511Y2819D02*
X3465Y2872D01*
D02*
X2233Y2819D02*
X2218Y2865D01*
D02*
X953Y2818D02*
X938Y2864D01*
D02*
X3883Y2699D02*
X3936Y2866D01*
D02*
X2608Y2697D02*
X2695Y2867D01*
D02*
X1318Y2695D02*
X1414Y2867D01*
D02*
X3694Y2597D02*
X3669Y2598D01*
D02*
X2416Y2597D02*
X2391Y2597D01*
D02*
X1125Y2596D02*
X1100Y2596D01*
D02*
X3649Y2770D02*
X3511Y2819D01*
D02*
X2371Y2770D02*
X2233Y2819D01*
D02*
X1080Y2769D02*
X953Y2818D01*
D02*
X3973Y2596D02*
X4000Y2597D01*
D02*
X2694Y2595D02*
X2722Y2596D01*
D02*
X1403Y2594D02*
X1431Y2595D01*
D02*
X3568Y2484D02*
X3562Y2484D01*
D02*
X2290Y2484D02*
X2284Y2484D01*
D02*
X999Y2483D02*
X993Y2483D01*
D02*
X3589Y2449D02*
X3568Y2484D01*
D02*
X2311Y2448D02*
X2290Y2484D01*
D02*
X1019Y2447D02*
X999Y2483D01*
D02*
X3600Y2449D02*
X3589Y2449D01*
D02*
X2322Y2448D02*
X2311Y2448D01*
D02*
X1031Y2447D02*
X1019Y2447D01*
G04 End of Copper1*
M02*