; NON-PLATED HOLES START AT T1
; THROUGH (PLATED) HOLES START AT T100
M48
INCH
T1C0.196850
T100C0.015748
T101C0.035000
T102C0.031496
T103C0.038000
%
T1
X001713Y001838
X049379Y029690
X001713Y029690
X049379Y001838
T100
X015990Y022954
X041683Y022971
X013842Y025936
X010796Y020241
X025907Y016380
X034101Y017936
X017157Y019380
X044146Y024767
X038324Y004158
X013083Y026788
X031365Y024761
X024347Y025965
X013879Y024954
X036665Y027637
X044127Y021672
X034590Y024508
X011768Y020825
X024697Y020886
X028902Y022965
X023884Y027631
X024365Y022428
X016681Y020214
X031331Y021682
X026791Y024965
X026407Y015047
X028514Y025465
X018453Y024751
X023576Y020718
X015435Y020991
X041294Y025471
X037146Y022434
X042850Y019397
X034842Y021695
X010972Y027621
X011453Y022417
X034129Y017047
X039572Y024971
X037461Y020841
X028254Y026977
X011435Y025954
X024384Y023057
X021810Y024502
X018467Y021751
X041127Y021008
X037127Y025971
X028509Y021250
X037165Y023063
X015449Y026964
X011472Y023047
X015601Y025454
X008898Y024491
X041060Y026977
X026754Y025946
X042046Y020139
X029559Y020054
X025995Y026798
X022046Y021658
X025101Y014825
X038776Y026804
X039535Y025952
X030069Y019391
T101
X034340Y008725
X032340Y008725
X031340Y008725
X044340Y011725
X039340Y011725
X042340Y011725
X038340Y011725
X041340Y011725
X043340Y008725
X035340Y011725
X037340Y008725
X034340Y011725
X040340Y008725
X036340Y008725
X032340Y011725
X031340Y011725
X033340Y008725
X043340Y011725
X044340Y008725
X037340Y011725
X039340Y008725
X040340Y011725
X036340Y011725
X042340Y008725
X038340Y008725
X041340Y008725
X033340Y011725
X035340Y008725
T102
X035963Y013461
X034963Y013461
X024963Y001873
X026695Y001873
X036963Y013461
T103
X015283Y028929
X034455Y019354
X036455Y019354
X038455Y019354
X029183Y000825
X022084Y019348
X035455Y019354
X037455Y019354
X039455Y019354
X023084Y019348
X025084Y019348
X027084Y019348
X029084Y019348
X034455Y028945
X036455Y028945
X038455Y028945
X024084Y019348
X026084Y019348
X028084Y019348
X031183Y000825
X022084Y028939
X035455Y028945
X037455Y028945
X039455Y028945
X041455Y019354
X030183Y000825
X032183Y000825
X023084Y028939
X025084Y028939
X027084Y028939
X029084Y028939
X040455Y019354
X024084Y028939
X026084Y028939
X028084Y028939
X041455Y028945
X040455Y028945
X009283Y019338
X009283Y028929
X011283Y019338
X013283Y019338
X010283Y019338
X012283Y019338
X014283Y019338
X016283Y019338
X015283Y019338
X011283Y028929
X013283Y028929
X010283Y028929
X012283Y028929
X014283Y028929
X016283Y028929
T00
M30
